<svg id="Capa_1" enable-background="new 0 0 511.643 511.643" height="512" viewBox="0 0 511.643 511.643" width="512" xmlns="http://www.w3.org/2000/svg"><g><g><g id="XMLID_187_"><path d="m373.885 146.402-77.73-50.69-.19-59.49h-88.35v59.49l-77.73 50.69c-9.98 6.51-18 15.28-23.59 25.39l10.039 33.702h251.764l20.437-46.392h.01c-4.23-4.82-9.15-9.11-14.66-12.7z" fill="#edf9fa"/></g><path d="m296.139 90.854-.127-39.733-.048-14.899h-51.58-36.77v59.49l-77.73 50.69c-9.98 6.51-18 15.28-23.59 25.39l10.039 33.702h25.265v-1.39c0-11.079 3.16-21.771 8.95-31.17 5.59-9.084 13.61-16.964 23.59-22.814l74.521-43.666c1.988-1.165 3.209-3.296 3.209-5.6v-1.683c0-4.594 3.724-8.318 8.318-8.318h35.953z" fill="#e1f5f8"/><path d="m406.425 206.482v263.58c0 18.82-15.26 34.08-34.08 34.08h-240.92c-18.82 0-34.08-15.26-34.08-34.08v-263.58c0-12.33 3.16-24.23 8.95-34.69l22.37-5.53c38.82-9.6 79.34-9.97 118.33-1.08 18.72 4.27 37.81 6.4 56.9 6.4 18.38 0 36.77-1.98 54.83-5.94l29.81-6.54h.01c11.38 12.93 17.88 29.72 17.88 47.38z" fill="#b3e5ee"/><g><path d="m146.046 282.063c1.741-1.252 3.875-1.989 6.184-1.989h254.195v-73.592c0-.559-.025-1.115-.039-1.672h-255.734c-4.795 0-8.404-4.387-7.455-9.086 1.481-7.33 3.967-17.294 7.352-22.788 2.746-4.462 6.103-8.658 9.965-12.441-10.69 1.245-21.344 3.17-31.849 5.768l-22.37 5.53c-5.79 10.46-8.95 22.36-8.95 34.69v263.58c0 18.822 15.258 34.08 34.08 34.08h240.92c18.317 0 33.256-14.457 34.042-32.58h-230.708c-15.221 0-28.104-8.971-32.478-21.347-.674-1.907.802-3.898 2.824-3.898h260.399v-75.265h-253.886c-3.045 0-4.142-4.074-1.481-5.555 2.633-1.465 5.664-2.301 8.892-2.301h246.476v-75.267h-258.479c-3.14 0-4.45-4.034-1.9-5.867z" fill="#86d7e5"/><g fill="#b3e5ee"><path d="m410.698 265.074h-309.752c-7.022 0-12.715-5.693-12.715-12.715v-19.835c0-7.022 5.693-12.715 12.715-12.715h309.751c7.022 0 12.715 5.693 12.715 12.715v19.835c0 7.023-5.692 12.715-12.714 12.715z"/><path d="m410.698 348.195h-309.752c-7.022 0-12.715-5.693-12.715-12.715v-19.835c0-7.022 5.693-12.715 12.715-12.715h309.751c7.022 0 12.715 5.693 12.715 12.715v19.835c0 7.022-5.692 12.715-12.714 12.715z"/><path d="m410.698 431.316h-309.752c-7.022 0-12.715-5.693-12.715-12.715v-19.835c0-7.022 5.693-12.715 12.715-12.715h309.751c7.022 0 12.715 5.693 12.715 12.715v19.835c0 7.022-5.692 12.715-12.714 12.715z"/><path d="m297.494 75.853h-91.218c-8.326 0-15.075-6.749-15.075-15.075v-38.202c0-8.326 6.749-15.075 15.075-15.075h91.218c8.326 0 15.075 6.749 15.075 15.075v38.202c0 8.326-6.749 15.075-15.075 15.075z"/></g></g></g><path d="m430.912 252.359v-19.835c0-10.044-7.372-18.377-16.984-19.932v-6.106c0-26.875-13.439-51.684-35.95-66.365l-19.294-12.583c-3.47-2.262-8.115-1.284-10.379 2.185-2.263 3.47-1.284 8.116 2.186 10.379l19.294 12.583c1.064.694 2.101 1.419 3.114 2.167l-15.784 3.463c-35.508 7.792-73.01 7.638-108.453-.446-39.928-9.107-82.043-8.722-121.798 1.111l-1.405.347c2.627-2.423 5.471-4.651 8.527-6.643l77.722-50.688c2.123-1.385 3.403-3.748 3.403-6.282v-12.36h73.549v12.362c0 2.535 1.28 4.897 3.403 6.282l31.634 20.631c1.265.825 2.685 1.219 4.09 1.219 2.449 0 4.851-1.199 6.289-3.404 2.263-3.47 1.284-8.117-2.186-10.379l-28.23-18.411v-9.162c9.459-2.69 16.41-11.402 16.41-21.713v-38.203c0-12.449-10.128-22.576-22.577-22.576h-91.217c-12.448 0-22.576 10.127-22.576 22.576v38.202c0 10.31 6.951 19.022 16.41 21.713v9.162l-74.318 48.469c-22.511 14.681-35.95 39.49-35.95 66.365v9.164c-5.482 3.62-9.111 9.828-9.111 16.874v19.835c0 7.046 3.629 13.254 9.111 16.874v29.538c-5.482 3.62-9.111 9.828-9.111 16.874v19.835c0 7.046 3.629 13.254 9.111 16.874v29.538c-5.482 3.62-9.111 9.828-9.111 16.874v19.835c0 7.046 3.629 13.254 9.111 16.874v34.586c0 22.928 18.653 41.582 41.582 41.582h240.922c22.929 0 41.582-18.654 41.582-41.582v-31.528c9.613-1.554 16.984-9.887 16.984-19.932v-19.835c0-10.044-7.372-18.377-16.984-19.932v-23.423c9.613-1.554 16.984-9.887 16.984-19.932v-19.835c0-10.044-7.372-18.377-16.984-19.932v-23.422c9.613-1.554 16.984-9.887 16.984-19.932zm-186.527-184.005h-15.342v-53.354h15.342zm15-53.354h15.342v53.354h-15.342zm45.685 7.576v38.202c0 4.177-3.398 7.576-7.576 7.576h-7.767v-53.354h7.767c4.177 0 7.576 3.398 7.576 7.576zm-106.37 0c0-4.177 3.398-7.576 7.576-7.576h7.767v53.354h-7.767c-4.178 0-7.576-3.398-7.576-7.576zm-93.858 272.854v-22.856h294.086v22.856zm25.623-121.887c37.488-9.274 77.208-9.637 114.86-1.048 37.585 8.572 77.353 8.734 115.004.473l25.365-5.566c8.481 11.044 13.234 24.698 13.234 39.084v5.823h-227.442c-4.143 0-7.5 3.358-7.5 7.5s3.357 7.5 7.5 7.5h239.212c2.876 0 5.215 2.339 5.215 5.215v19.835c0 2.875-2.339 5.215-5.215 5.215h-309.752c-2.876 0-5.215-2.339-5.215-5.215v-19.835c0-2.875 2.339-5.215 5.215-5.215h38.578c4.143 0 7.5-3.358 7.5-7.5s-3.357-7.5-7.5-7.5h-34.682v-5.823c0-9.964 2.285-19.575 6.504-28.214zm241.881 323.1h-240.922c-14.657 0-26.582-11.925-26.582-26.582v-31.245h294.086v31.245c0 14.657-11.925 26.582-26.582 26.582zm43.566-97.877v19.835c0 2.875-2.339 5.215-5.215 5.215h-309.751c-2.876 0-5.215-2.339-5.215-5.215v-19.835c0-2.875 2.339-5.215 5.215-5.215h228.047c4.143 0 7.5-3.358 7.5-7.5s-3.357-7.5-7.5-7.5h-224.15v-22.856h294.086v22.856h-37.974c-4.143 0-7.5 3.358-7.5 7.5s3.357 7.5 7.5 7.5h49.743c2.875 0 5.214 2.34 5.214 5.215zm0-83.121v19.835c0 2.875-2.339 5.215-5.215 5.215h-309.751c-2.876 0-5.215-2.339-5.215-5.215v-19.835c0-2.875 2.339-5.215 5.215-5.215h309.752c2.875 0 5.214 2.34 5.214 5.215z"/></g></svg>