<?xml version="1.0" encoding="utf-8"?>
<!-- Generator: Adobe Illustrator 16.0.0, SVG Export Plug-In . SVG Version: 6.00 Build 0)  -->
<!DOCTYPE svg PUBLIC "-//W3C//DTD SVG 1.1//EN" "http://www.w3.org/Graphics/SVG/1.1/DTD/svg11.dtd">
<svg version="1.1" id="Layer_1" xmlns="http://www.w3.org/2000/svg" xmlns:xlink="http://www.w3.org/1999/xlink" x="0px" y="0px"
	 width="100%" height="100%" viewBox="0 0 398.131 99.184"
	 xml:space="preserve">
<g>
	<g>
		<path fill="#ED1C24" d="M392.931,59.149c-0.082,9.439-3.281,17.439-9.602,24.002c-6.319,6.604-14.158,9.904-23.516,9.904
			c-9.237,0-17.097-3.18-23.578-9.539c-6.482-6.359-9.723-14.158-9.723-23.395c0-9.155,3.221-16.994,9.662-23.518
			c6.441-6.521,14.26-9.783,23.455-9.783c6.725,0,12.862,1.864,18.412,5.591c5.551,3.728,9.703,8.73,12.458,15.009l-43.935,28.561
			c3.93,3.16,8.346,4.74,13.248,4.74c5.914,0,10.795-2.107,14.645-6.32c3.848-4.213,5.813-9.297,5.895-15.252H392.931z
			 M372.878,44.018c-3.971-3.16-8.387-4.74-13.248-4.74c-5.752,0-10.633,2.046-14.645,6.138c-4.01,4.092-6.016,8.993-6.016,14.706
			c0,1.539,0.283,3.322,0.852,5.346L372.878,44.018z"/>
	</g>
	<g>
		<g>
			<rect x="182.953" y="70.625" fill="#ED1C24" width="14.978" height="6.828"/>
			<rect x="164.892" y="70.625" fill="#ED1C24" width="14.978" height="6.828"/>
		</g>
		<g>
			<rect x="182.953" y="60.934" fill="#ED1C24" width="14.978" height="6.828"/>
			<rect x="164.892" y="60.934" fill="#ED1C24" width="14.978" height="6.828"/>
		</g>
		<rect x="182.953" y="51.023" fill="#ED1C24" width="14.978" height="6.829"/>
	</g>
	<g>
		<path fill="#808285" d="M203.218,27.895h-21.807h-21.806c-5.946,0-10.792,4.847-10.792,10.793v43.613
			c0,5.947,4.846,10.793,10.792,10.793h21.806h21.807c5.946,0,10.792-4.846,10.792-10.793V38.688
			C214.01,32.742,209.165,27.895,203.218,27.895z M201.896,80.758h-20.484h-20.264V40.01h20.264h20.484V80.758z"/>
		<path fill="#808285" d="M102.777,34.283v58.812h12.335V40.229h25.771V27.895h-31.718
			C105.641,27.895,102.777,30.759,102.777,34.283z"/>
		<path fill="#808285" d="M86.257,6.089H10.487c-2.864,0-5.287,2.423-5.287,5.286v76.213c0,2.861,2.423,5.285,5.287,5.285h75.771
			c3.083,0,5.506-2.424,5.506-5.285v-40.31h-3.083h-9.031H47.932v12.335h31.717v20.924H17.536V18.423h62.114v16.3h12.114V11.375
			C91.764,8.512,89.341,6.089,86.257,6.089z"/>
		<polygon fill="#808285" points="310.267,27.895 293.225,75.125 279.429,27.895 279.21,27.895 266.214,27.895 265.993,27.895 
			252.036,75.125 235.156,27.895 221.941,27.895 245.068,91.993 247.05,91.993 258.064,91.993 260.266,91.993 272.712,49.882 
			285.157,91.993 287.139,91.993 298.152,91.993 300.354,91.993 323.482,27.895 		"/>
	</g>
</g>
</svg>
